<?xml version="1.0" encoding="iso-8859-1"?>
<!-- Generator: Adobe Illustrator 19.0.0, SVG Export Plug-In . SVG Version: 6.00 Build 0)  -->
<svg version="1.1" id="Capa_1" xmlns="http://www.w3.org/2000/svg" xmlns:xlink="http://www.w3.org/1999/xlink" x="0px" y="0px"
	 viewBox="0 0 464.018 464.018" style="enable-background:new 0 0 464.018 464.018;" xml:space="preserve">
<g>
	<g>
		<path d="M286.689,415.179c-18.076,2.958-36.364,4.422-54.68,4.376c-37.206,0.811-74.185-5.995-108.664-20l-6.672,14.544
			c36.543,15.068,75.819,22.375,115.336,21.456c19.2,0.046,38.372-1.49,57.32-4.592L286.689,415.179z"/>
	</g>
</g>
<g>
	<g>
		<path d="M94.249,379.083l-12.48,10.016c5.097,6.124,11.122,11.412,17.856,15.672l8.8-13.376
			C103.091,388.049,98.309,383.896,94.249,379.083z"/>
	</g>
</g>
<g>
	<g>
		<path d="M463.177,152.027c-0.775-1.555-2.036-2.816-3.591-3.591v-0.04l-224-112c-2.251-1.125-4.901-1.125-7.152,0l-224,112
			c-3.954,1.971-5.562,6.774-3.591,10.729c0.775,1.555,2.036,2.816,3.591,3.591l83.576,41.784v127.056c0,40.376,63.256,72,144,72
			s144-31.624,144-72V204.499l40-20v108.528c-12.456,4.362-19.016,17.996-14.654,30.452c1.187,3.389,3.122,6.466,5.662,9.004
			l-14.4,36.104c-1.639,4.103,0.358,8.758,4.461,10.397c0.933,0.373,1.927,0.566,2.931,0.571h48
			c4.418,0.002,8.001-3.579,8.003-7.997c0-1.018-0.193-2.026-0.571-2.971l-14.4-36.104c9.33-9.334,9.326-24.464-0.008-33.794
			c-2.544-2.542-5.628-4.478-9.024-5.662V176.499l27.576-13.744C463.54,160.784,465.148,155.981,463.177,152.027z M360.009,331.555
			c0,27.048-51.432,56-128,56s-128-28.952-128-56v-6.608c23.704,23.112,71.528,38.608,128,38.608s104.296-15.496,128-38.608V331.555
			z M360.009,291.555c0,27.048-51.432,56-128,56s-128-28.952-128-56v-79.056l124.424,62.256c2.251,1.125,4.901,1.125,7.152,0
			l124.424-62.256V291.555z M424.009,307.555c4.418,0,8,3.582,8,8s-3.582,8-8,8s-8-3.582-8-8S419.591,307.555,424.009,307.555z
			 M436.193,363.555h-24.368l9.704-24.248c0.8,0.08,1.6,0.248,2.48,0.248s1.656-0.168,2.48-0.248L436.193,363.555z M422.505,163.363
			l-152.512-15.248c-5.008-9.784-19.584-16.56-37.984-16.56c-22.808,0-40,10.32-40,24s17.192,24,40,24
			c17.688,0,31.888-6.248,37.424-15.416l126.264,12.624l-163.688,81.848L25.897,155.555L232.009,52.499l206.112,103.056
			L422.505,163.363z M256.009,155.555c0,1.992-8.512,8-24,8c-15.488,0-24-6.008-24-8s8.512-8,24-8
			C247.497,147.555,256.009,153.563,256.009,155.555z"/>
	</g>
</g>
<g>
	<g>
		<rect x="416.01" y="98.567" transform="matrix(0.4472 -0.8944 0.8944 0.4472 138.2265 438.6771)" width="16" height="17.888"/>
	</g>
</g>
<g>
	<g>
		<rect x="332.01" y="-1.542" transform="matrix(0.4472 -0.8944 0.8944 0.4472 129.3314 340.3458)" width="16" height="134.168"/>
	</g>
</g>
<g>
</g>
<g>
</g>
<g>
</g>
<g>
</g>
<g>
</g>
<g>
</g>
<g>
</g>
<g>
</g>
<g>
</g>
<g>
</g>
<g>
</g>
<g>
</g>
<g>
</g>
<g>
</g>
<g>
</g>
</svg>
