<?xml version="1.0" encoding="iso-8859-1"?>
<!-- Generator: Adobe Illustrator 16.0.0, SVG Export Plug-In . SVG Version: 6.00 Build 0)  -->
<!DOCTYPE svg PUBLIC "-//W3C//DTD SVG 1.1//EN" "http://www.w3.org/Graphics/SVG/1.1/DTD/svg11.dtd">
<svg version="1.1" id="Capa_1" xmlns="http://www.w3.org/2000/svg" xmlns:xlink="http://www.w3.org/1999/xlink" x="0px" y="0px"
	 width="550.588px" height="550.588px" viewBox="0 0 550.588 550.588" style="enable-background:new 0 0 550.588 550.588;"
	 xml:space="preserve">
<g>
	<g>
		<g>
			<path d="M10.711,487.962c-14.282,14.273-14.282,37.43,0,51.701c7.14,7.143,16.498,10.712,25.851,10.712
				c9.355,0,18.711-3.569,25.851-10.712l120.348-120.347l-51.704-51.692L10.711,487.962z"/>
			<path d="M550.588,128.526c0-12.864-5-24.967-14.104-34.064l-80.607-80.596c-18.211-18.211-49.953-18.201-68.127,0.008
				l-76.141,76.151c-5.732-5.329-13.018-8.078-20.316-8.078c-7.643,0-15.3,2.919-21.14,8.755L109.12,251.712
				c-5.605,5.604-8.747,13.211-8.747,21.136c0,7.928,3.142,15.534,8.747,21.14L256.39,441.23c5.836,5.836,13.478,8.757,21.138,8.757
				c7.658,0,15.301-2.921,21.137-8.757l161.018-161.009c5.605-5.607,8.746-13.212,8.746-21.137c0-7.579-2.943-14.819-8.088-20.343
				l76.145-76.151C545.588,153.495,550.588,141.391,550.588,128.526z M510.631,136.739l-76.07,76.08l-97.029-97.012l76.09-76.09
				c4.318-4.337,12.051-4.348,16.406,0l80.605,80.596C515.166,124.84,515.166,132.213,510.631,136.739z"/>
			<path d="M387.248,88.58c-8.033,8.043-8.033,21.094,0,29.119c8.037,8.042,21.064,8.042,29.117,0
				c8.033-8.025,8.033-21.076,0-29.119C408.316,80.547,395.285,80.547,387.248,88.58z"/>
			<path d="M428.971,130.32c-8.049,8.043-8.049,21.083,0,29.127c8.035,8.042,21.086,8.042,29.119,0
				c8.035-8.044,8.035-21.083,0-29.127C450.055,122.269,437.006,122.269,428.971,130.32z"/>
		</g>
	</g>
</g>
<g>
</g>
<g>
</g>
<g>
</g>
<g>
</g>
<g>
</g>
<g>
</g>
<g>
</g>
<g>
</g>
<g>
</g>
<g>
</g>
<g>
</g>
<g>
</g>
<g>
</g>
<g>
</g>
<g>
</g>
</svg>
